<svg width="1440" height="1029" viewBox="0 0 1440 1029" fill="none" xmlns="http://www.w3.org/2000/svg">
<rect x="1.25" y="1.25" width="101.79" height="101.79" fill="black" stroke="#262626" stroke-width="2.5"/>
<rect x="1.25" y="103.534" width="101.79" height="101.79" fill="black" stroke="#262626" stroke-width="2.5"/>
<rect x="1.25" y="205.818" width="101.79" height="101.79" fill="black" stroke="#262626" stroke-width="2.5"/>
<rect x="1.25" y="308.102" width="101.79" height="102.792" fill="black" stroke="#262626" stroke-width="2.5"/>
<rect x="1.25" y="411.389" width="101.79" height="102.792" fill="black" stroke="#262626" stroke-width="2.5"/>
<rect x="1.25" y="514.676" width="101.79" height="101.79" fill="black" stroke="#262626" stroke-width="2.5"/>
<rect x="1.25" y="616.96" width="101.79" height="101.79" fill="black" stroke="#262626" stroke-width="2.5"/>
<rect x="1.25" y="719.244" width="101.79" height="101.79" fill="black" stroke="#262626" stroke-width="2.5"/>
<rect x="1.25" y="821.529" width="101.79" height="102.792" fill="black" stroke="#262626" stroke-width="2.5"/>
<rect x="103.534" y="1.25" width="101.79" height="101.79" fill="black" stroke="#262626" stroke-width="2.5"/>
<rect x="103.534" y="103.534" width="101.79" height="101.79" fill="black" stroke="#262626" stroke-width="2.5"/>
<rect x="103.534" y="205.818" width="101.79" height="101.79" fill="black" stroke="#262626" stroke-width="2.5"/>
<rect x="103.534" y="308.102" width="101.79" height="102.792" fill="black" stroke="#262626" stroke-width="2.5"/>
<rect x="103.534" y="411.389" width="101.79" height="102.792" fill="black" stroke="#262626" stroke-width="2.5"/>
<rect x="103.534" y="514.676" width="101.79" height="101.79" fill="black" stroke="#262626" stroke-width="2.5"/>
<rect x="103.534" y="616.96" width="101.79" height="101.79" fill="black" stroke="#262626" stroke-width="2.5"/>
<rect x="103.534" y="719.244" width="101.79" height="101.79" fill="black" stroke="#262626" stroke-width="2.5"/>
<rect x="103.534" y="821.529" width="101.79" height="102.792" fill="black" stroke="#262626" stroke-width="2.5"/>
<rect x="205.818" y="1.25" width="101.79" height="101.79" fill="black" stroke="#262626" stroke-width="2.5"/>
<rect x="205.818" y="103.534" width="101.79" height="101.79" fill="black" stroke="#262626" stroke-width="2.5"/>
<rect x="205.818" y="205.818" width="101.79" height="101.79" fill="black" stroke="#262626" stroke-width="2.5"/>
<rect x="205.818" y="308.102" width="101.79" height="102.792" fill="black" stroke="#262626" stroke-width="2.5"/>
<rect x="205.818" y="411.389" width="101.79" height="102.792" fill="black" stroke="#262626" stroke-width="2.5"/>
<rect x="205.818" y="514.676" width="101.79" height="101.79" fill="black" stroke="#262626" stroke-width="2.5"/>
<rect x="205.818" y="616.96" width="101.79" height="101.79" fill="black" stroke="#262626" stroke-width="2.5"/>
<rect x="205.818" y="719.244" width="101.79" height="101.79" fill="black" stroke="#262626" stroke-width="2.5"/>
<rect x="205.818" y="821.529" width="101.79" height="102.792" fill="black" stroke="#262626" stroke-width="2.5"/>
<rect x="308.103" y="1.25" width="102.792" height="101.79" fill="black" stroke="#262626" stroke-width="2.5"/>
<rect x="308.103" y="103.534" width="102.792" height="101.79" fill="black" stroke="#262626" stroke-width="2.5"/>
<rect x="308.103" y="205.818" width="102.792" height="101.79" fill="black" stroke="#262626" stroke-width="2.5"/>
<rect x="308.103" y="308.102" width="102.792" height="102.792" fill="black" stroke="#262626" stroke-width="2.5"/>
<rect x="308.103" y="411.389" width="102.792" height="102.792" fill="black" stroke="#262626" stroke-width="2.5"/>
<rect x="308.103" y="514.676" width="102.792" height="101.79" fill="black" stroke="#262626" stroke-width="2.5"/>
<rect x="308.103" y="616.96" width="102.792" height="101.79" fill="black" stroke="#262626" stroke-width="2.5"/>
<rect x="308.103" y="719.244" width="102.792" height="101.79" fill="black" stroke="#262626" stroke-width="2.5"/>
<rect x="308.103" y="821.529" width="102.792" height="102.792" fill="black" stroke="#262626" stroke-width="2.5"/>
<rect x="411.389" y="1.25" width="102.792" height="101.79" fill="black" stroke="#262626" stroke-width="2.5"/>
<rect x="411.389" y="103.534" width="102.792" height="101.79" fill="black" stroke="#262626" stroke-width="2.5"/>
<rect x="411.389" y="205.818" width="102.792" height="101.79" fill="black" stroke="#262626" stroke-width="2.5"/>
<rect x="411.389" y="308.102" width="102.792" height="102.792" fill="black" stroke="#262626" stroke-width="2.5"/>
<rect x="411.389" y="411.389" width="102.792" height="102.792" fill="black" stroke="#262626" stroke-width="2.5"/>
<rect x="411.389" y="514.676" width="102.792" height="101.79" fill="black" stroke="#262626" stroke-width="2.5"/>
<rect x="411.389" y="616.96" width="102.792" height="101.79" fill="black" stroke="#262626" stroke-width="2.5"/>
<rect x="411.389" y="719.244" width="102.792" height="101.79" fill="black" stroke="#262626" stroke-width="2.5"/>
<rect x="411.389" y="821.529" width="102.792" height="102.792" fill="black" stroke="#262626" stroke-width="2.5"/>
<rect x="514.676" y="1.25" width="101.79" height="101.79" fill="black" stroke="#262626" stroke-width="2.5"/>
<rect x="514.676" y="103.534" width="101.79" height="101.79" fill="black" stroke="#262626" stroke-width="2.5"/>
<rect x="514.676" y="205.818" width="101.79" height="101.79" fill="black" stroke="#262626" stroke-width="2.5"/>
<rect x="514.676" y="308.102" width="101.79" height="102.792" fill="black" stroke="#262626" stroke-width="2.5"/>
<rect x="514.676" y="411.389" width="101.79" height="102.792" fill="black" stroke="#262626" stroke-width="2.5"/>
<rect x="514.676" y="514.676" width="101.79" height="101.79" fill="black" stroke="#262626" stroke-width="2.5"/>
<rect x="514.676" y="616.96" width="101.79" height="101.79" fill="black" stroke="#262626" stroke-width="2.5"/>
<rect x="514.676" y="719.244" width="101.79" height="101.79" fill="black" stroke="#262626" stroke-width="2.5"/>
<rect x="514.676" y="821.529" width="101.79" height="102.792" fill="black" stroke="#262626" stroke-width="2.5"/>
<rect x="616.96" y="1.25" width="101.79" height="101.79" fill="black" stroke="#262626" stroke-width="2.5"/>
<rect x="616.96" y="103.534" width="101.79" height="101.79" fill="black" stroke="#262626" stroke-width="2.5"/>
<rect x="616.96" y="205.818" width="101.79" height="101.79" fill="black" stroke="#262626" stroke-width="2.5"/>
<rect x="616.96" y="308.102" width="101.79" height="102.792" fill="black" stroke="#262626" stroke-width="2.5"/>
<rect x="616.96" y="411.389" width="101.79" height="102.792" fill="black" stroke="#262626" stroke-width="2.5"/>
<rect x="616.96" y="514.676" width="101.79" height="101.79" fill="black" stroke="#262626" stroke-width="2.5"/>
<rect x="616.96" y="616.96" width="101.79" height="101.79" fill="black" stroke="#262626" stroke-width="2.5"/>
<rect x="616.96" y="719.244" width="101.79" height="101.79" fill="black" stroke="#262626" stroke-width="2.5"/>
<rect x="616.96" y="821.529" width="101.79" height="102.792" fill="black" stroke="#262626" stroke-width="2.5"/>
<rect x="719.245" y="1.25" width="102.792" height="101.79" fill="black" stroke="#262626" stroke-width="2.5"/>
<rect x="719.245" y="103.534" width="102.792" height="101.79" fill="black" stroke="#262626" stroke-width="2.5"/>
<rect x="719.245" y="205.818" width="102.792" height="101.79" fill="black" stroke="#262626" stroke-width="2.5"/>
<rect x="719.245" y="308.102" width="102.792" height="102.792" fill="black" stroke="#262626" stroke-width="2.5"/>
<rect x="719.245" y="411.389" width="102.792" height="102.792" fill="black" stroke="#262626" stroke-width="2.5"/>
<rect x="719.245" y="514.676" width="102.792" height="101.79" fill="black" stroke="#262626" stroke-width="2.5"/>
<rect x="719.245" y="616.96" width="102.792" height="101.79" fill="black" stroke="#262626" stroke-width="2.5"/>
<rect x="719.245" y="719.244" width="102.792" height="101.79" fill="black" stroke="#262626" stroke-width="2.5"/>
<rect x="719.245" y="821.529" width="102.792" height="102.792" fill="black" stroke="#262626" stroke-width="2.5"/>
<rect x="822.531" y="1.25" width="102.792" height="101.79" fill="black" stroke="#262626" stroke-width="2.5"/>
<rect x="822.531" y="103.534" width="102.792" height="101.79" fill="black" stroke="#262626" stroke-width="2.5"/>
<rect x="822.531" y="205.818" width="102.792" height="101.79" fill="black" stroke="#262626" stroke-width="2.5"/>
<rect x="822.531" y="308.102" width="102.792" height="102.792" fill="black" stroke="#262626" stroke-width="2.5"/>
<rect x="822.531" y="411.389" width="102.792" height="102.792" fill="black" stroke="#262626" stroke-width="2.5"/>
<rect x="822.531" y="514.676" width="102.792" height="101.79" fill="black" stroke="#262626" stroke-width="2.5"/>
<rect x="822.531" y="616.96" width="102.792" height="101.79" fill="black" stroke="#262626" stroke-width="2.5"/>
<rect x="822.531" y="719.244" width="102.792" height="101.79" fill="black" stroke="#262626" stroke-width="2.5"/>
<rect x="822.531" y="821.529" width="102.792" height="102.792" fill="black" stroke="#262626" stroke-width="2.5"/>
<rect x="925.818" y="1.25" width="102.792" height="101.79" fill="black" stroke="#262626" stroke-width="2.5"/>
<rect x="925.818" y="103.534" width="102.792" height="101.79" fill="black" stroke="#262626" stroke-width="2.5"/>
<rect x="925.818" y="205.818" width="102.792" height="101.79" fill="black" stroke="#262626" stroke-width="2.5"/>
<rect x="925.818" y="308.102" width="102.792" height="102.792" fill="black" stroke="#262626" stroke-width="2.5"/>
<rect x="925.818" y="411.389" width="102.792" height="102.792" fill="black" stroke="#262626" stroke-width="2.5"/>
<rect x="925.818" y="514.676" width="102.792" height="101.79" fill="black" stroke="#262626" stroke-width="2.5"/>
<rect x="925.818" y="616.96" width="102.792" height="101.79" fill="black" stroke="#262626" stroke-width="2.5"/>
<rect x="925.818" y="719.244" width="102.792" height="101.79" fill="black" stroke="#262626" stroke-width="2.5"/>
<rect x="925.818" y="821.529" width="102.792" height="102.792" fill="black" stroke="#262626" stroke-width="2.5"/>
<rect x="1029.1" y="1.25" width="101.79" height="101.79" fill="black" stroke="#262626" stroke-width="2.5"/>
<rect x="1029.1" y="103.534" width="101.79" height="101.79" fill="black" stroke="#262626" stroke-width="2.5"/>
<rect x="1029.1" y="205.818" width="101.79" height="101.79" fill="black" stroke="#262626" stroke-width="2.5"/>
<rect x="1029.1" y="308.102" width="101.79" height="102.792" fill="black" stroke="#262626" stroke-width="2.5"/>
<rect x="1029.1" y="411.389" width="101.79" height="102.792" fill="black" stroke="#262626" stroke-width="2.5"/>
<rect x="1029.1" y="514.676" width="101.79" height="101.79" fill="black" stroke="#262626" stroke-width="2.5"/>
<rect x="1029.1" y="616.96" width="101.79" height="101.79" fill="black" stroke="#262626" stroke-width="2.5"/>
<rect x="1029.1" y="719.244" width="101.79" height="101.79" fill="black" stroke="#262626" stroke-width="2.5"/>
<rect x="1029.1" y="821.529" width="101.79" height="102.792" fill="black" stroke="#262626" stroke-width="2.5"/>
<rect x="1131.39" y="1.25" width="102.792" height="101.79" fill="black" stroke="#262626" stroke-width="2.5"/>
<rect x="1234.68" y="1.25" width="101.79" height="101.79" fill="black" stroke="#262626" stroke-width="2.5"/>
<rect x="1336.96" y="1.25" width="101.79" height="101.79" fill="black" stroke="#262626" stroke-width="2.5"/>
<rect x="1131.39" y="103.534" width="102.792" height="101.79" fill="black" stroke="#262626" stroke-width="2.5"/>
<rect x="1234.68" y="103.534" width="101.79" height="101.79" fill="black" stroke="#262626" stroke-width="2.5"/>
<rect x="1336.96" y="103.534" width="101.79" height="101.79" fill="black" stroke="#262626" stroke-width="2.5"/>
<rect x="1131.39" y="205.818" width="102.792" height="101.79" fill="black" stroke="#262626" stroke-width="2.5"/>
<rect x="1234.68" y="205.818" width="101.79" height="101.79" fill="black" stroke="#262626" stroke-width="2.5"/>
<rect x="1336.96" y="205.818" width="101.79" height="101.79" fill="black" stroke="#262626" stroke-width="2.5"/>
<rect x="1131.39" y="308.102" width="102.792" height="102.792" fill="black" stroke="#262626" stroke-width="2.5"/>
<rect x="1234.68" y="308.102" width="101.79" height="102.792" fill="black" stroke="#262626" stroke-width="2.5"/>
<rect x="1336.96" y="308.102" width="101.79" height="102.792" fill="black" stroke="#262626" stroke-width="2.5"/>
<rect x="1131.39" y="411.389" width="102.792" height="102.792" fill="black" stroke="#262626" stroke-width="2.5"/>
<rect x="1234.68" y="411.389" width="101.79" height="102.792" fill="black" stroke="#262626" stroke-width="2.5"/>
<rect x="1336.96" y="411.389" width="101.79" height="102.792" fill="black" stroke="#262626" stroke-width="2.5"/>
<rect x="1131.39" y="514.676" width="102.792" height="101.79" fill="black" stroke="#262626" stroke-width="2.5"/>
<rect x="1234.68" y="514.676" width="101.79" height="101.79" fill="black" stroke="#262626" stroke-width="2.5"/>
<rect x="1336.96" y="514.676" width="101.79" height="101.79" fill="black" stroke="#262626" stroke-width="2.5"/>
<rect x="1131.39" y="616.96" width="102.792" height="101.79" fill="black" stroke="#262626" stroke-width="2.5"/>
<rect x="1234.68" y="616.96" width="101.79" height="101.79" fill="black" stroke="#262626" stroke-width="2.5"/>
<rect x="1336.96" y="616.96" width="101.79" height="101.79" fill="black" stroke="#262626" stroke-width="2.5"/>
<rect x="1131.39" y="719.244" width="102.792" height="101.79" fill="black" stroke="#262626" stroke-width="2.5"/>
<rect x="1234.68" y="719.244" width="101.79" height="101.79" fill="black" stroke="#262626" stroke-width="2.5"/>
<rect x="1336.96" y="719.244" width="101.79" height="101.79" fill="black" stroke="#262626" stroke-width="2.5"/>
<rect x="1131.39" y="821.529" width="102.792" height="102.792" fill="black" stroke="#262626" stroke-width="2.5"/>
<rect x="1234.68" y="821.529" width="101.79" height="102.792" fill="black" stroke="#262626" stroke-width="2.5"/>
<rect x="1336.96" y="821.529" width="101.79" height="102.792" fill="black" stroke="#262626" stroke-width="2.5"/>
<mask id="path-127-inside-1_300_9" fill="white">
<path d="M0 923.565H104.29V1028.86H0V923.565Z"/>
</mask>
<path d="M0 923.565H104.29V1028.86H0V923.565Z" fill="black"/>
<path d="M0 923.565V921.565H-2V923.565H0ZM104.29 923.565H106.29V921.565H104.29V923.565ZM0 925.565H104.29V921.565H0V925.565ZM102.29 923.565V1028.86H106.29V923.565H102.29ZM2 1028.86V923.565H-2V1028.86H2Z" fill="#262626" mask="url(#path-127-inside-1_300_9)"/>
<mask id="path-129-inside-2_300_9" fill="white">
<path d="M102.284 923.565H206.574V1028.86H102.284V923.565Z"/>
</mask>
<path d="M102.284 923.565H206.574V1028.86H102.284V923.565Z" fill="black"/>
<path d="M102.284 923.565V921.565H100.284V923.565H102.284ZM206.574 923.565H208.574V921.565H206.574V923.565ZM102.284 925.565H206.574V921.565H102.284V925.565ZM204.574 923.565V1028.86H208.574V923.565H204.574ZM104.284 1028.86V923.565H100.284V1028.86H104.284Z" fill="#262626" mask="url(#path-129-inside-2_300_9)"/>
<mask id="path-131-inside-3_300_9" fill="white">
<path d="M204.568 923.565H308.858V1028.86H204.568V923.565Z"/>
</mask>
<path d="M204.568 923.565H308.858V1028.86H204.568V923.565Z" fill="black"/>
<path d="M204.568 923.565V921.565H202.568V923.565H204.568ZM308.858 923.565H310.858V921.565H308.858V923.565ZM204.568 925.565H308.858V921.565H204.568V925.565ZM306.858 923.565V1028.86H310.858V923.565H306.858ZM206.568 1028.86V923.565H202.568V1028.86H206.568Z" fill="#262626" mask="url(#path-131-inside-3_300_9)"/>
<mask id="path-133-inside-4_300_9" fill="white">
<path d="M306.853 923.565H412.145V1028.86H306.853V923.565Z"/>
</mask>
<path d="M306.853 923.565H412.145V1028.86H306.853V923.565Z" fill="black"/>
<path d="M306.853 923.565V921.565H304.853V923.565H306.853ZM412.145 923.565H414.145V921.565H412.145V923.565ZM306.853 925.565H412.145V921.565H306.853V925.565ZM410.145 923.565V1028.86H414.145V923.565H410.145ZM308.853 1028.86V923.565H304.853V1028.86H308.853Z" fill="#262626" mask="url(#path-133-inside-4_300_9)"/>
<mask id="path-135-inside-5_300_9" fill="white">
<path d="M410.139 923.565H515.432V1028.86H410.139V923.565Z"/>
</mask>
<path d="M410.139 923.565H515.432V1028.86H410.139V923.565Z" fill="black"/>
<path d="M410.139 923.565V921.565H408.139V923.565H410.139ZM515.432 923.565H517.432V921.565H515.432V923.565ZM410.139 925.565H515.432V921.565H410.139V925.565ZM513.432 923.565V1028.86H517.432V923.565H513.432ZM412.139 1028.86V923.565H408.139V1028.86H412.139Z" fill="#262626" mask="url(#path-135-inside-5_300_9)"/>
<mask id="path-137-inside-6_300_9" fill="white">
<path d="M513.426 923.565H617.716V1028.86H513.426V923.565Z"/>
</mask>
<path d="M513.426 923.565H617.716V1028.86H513.426V923.565Z" fill="black"/>
<path d="M513.426 923.565V921.565H511.426V923.565H513.426ZM617.716 923.565H619.716V921.565H617.716V923.565ZM513.426 925.565H617.716V921.565H513.426V925.565ZM615.716 923.565V1028.86H619.716V923.565H615.716ZM515.426 1028.86V923.565H511.426V1028.86H515.426Z" fill="#262626" mask="url(#path-137-inside-6_300_9)"/>
<mask id="path-139-inside-7_300_9" fill="white">
<path d="M615.71 923.565H720V1028.86H615.71V923.565Z"/>
</mask>
<path d="M615.71 923.565H720V1028.86H615.71V923.565Z" fill="black"/>
<path d="M615.71 923.565V921.565H613.71V923.565H615.71ZM720 923.565H722V921.565H720V923.565ZM615.71 925.565H720V921.565H615.71V925.565ZM718 923.565V1028.86H722V923.565H718ZM617.71 1028.86V923.565H613.71V1028.86H617.71Z" fill="#262626" mask="url(#path-139-inside-7_300_9)"/>
<mask id="path-141-inside-8_300_9" fill="white">
<path d="M717.995 923.565H823.287V1028.86H717.995V923.565Z"/>
</mask>
<path d="M717.995 923.565H823.287V1028.86H717.995V923.565Z" fill="black"/>
<path d="M717.995 923.565V921.565H715.995V923.565H717.995ZM823.287 923.565H825.287V921.565H823.287V923.565ZM717.995 925.565H823.287V921.565H717.995V925.565ZM821.287 923.565V1028.86H825.287V923.565H821.287ZM719.995 1028.86V923.565H715.995V1028.86H719.995Z" fill="#262626" mask="url(#path-141-inside-8_300_9)"/>
<mask id="path-143-inside-9_300_9" fill="white">
<path d="M821.281 923.565H926.574V1028.86H821.281V923.565Z"/>
</mask>
<path d="M821.281 923.565H926.574V1028.86H821.281V923.565Z" fill="black"/>
<path d="M821.281 923.565V921.565H819.281V923.565H821.281ZM926.574 923.565H928.574V921.565H926.574V923.565ZM821.281 925.565H926.574V921.565H821.281V925.565ZM924.574 923.565V1028.86H928.574V923.565H924.574ZM823.281 1028.86V923.565H819.281V1028.86H823.281Z" fill="#262626" mask="url(#path-143-inside-9_300_9)"/>
<mask id="path-145-inside-10_300_9" fill="white">
<path d="M924.568 923.565H1029.86V1028.86H924.568V923.565Z"/>
</mask>
<path d="M924.568 923.565H1029.86V1028.86H924.568V923.565Z" fill="black"/>
<path d="M924.568 923.565V921.565H922.568V923.565H924.568ZM1029.86 923.565H1031.86V921.565H1029.86V923.565ZM924.568 925.565H1029.86V921.565H924.568V925.565ZM1027.86 923.565V1028.86H1031.86V923.565H1027.86ZM926.568 1028.86V923.565H922.568V1028.86H926.568Z" fill="#262626" mask="url(#path-145-inside-10_300_9)"/>
<mask id="path-147-inside-11_300_9" fill="white">
<path d="M1027.85 923.565H1132.14V1028.86H1027.85V923.565Z"/>
</mask>
<path d="M1027.85 923.565H1132.14V1028.86H1027.85V923.565Z" fill="black"/>
<path d="M1027.85 923.565V921.565H1025.85V923.565H1027.85ZM1132.14 923.565H1134.14V921.565H1132.14V923.565ZM1027.85 925.565H1132.14V921.565H1027.85V925.565ZM1130.14 923.565V1028.86H1134.14V923.565H1130.14ZM1029.85 1028.86V923.565H1025.85V1028.86H1029.85Z" fill="#262626" mask="url(#path-147-inside-11_300_9)"/>
<mask id="path-149-inside-12_300_9" fill="white">
<path d="M1130.14 923.565H1235.43V1028.86H1130.14V923.565Z"/>
</mask>
<path d="M1130.14 923.565H1235.43V1028.86H1130.14V923.565Z" fill="black"/>
<path d="M1130.14 923.565V921.565H1128.14V923.565H1130.14ZM1235.43 923.565H1237.43V921.565H1235.43V923.565ZM1130.14 925.565H1235.43V921.565H1130.14V925.565ZM1233.43 923.565V1028.86H1237.43V923.565H1233.43ZM1132.14 1028.86V923.565H1128.14V1028.86H1132.14Z" fill="#262626" mask="url(#path-149-inside-12_300_9)"/>
<mask id="path-151-inside-13_300_9" fill="white">
<path d="M1233.43 923.565H1337.72V1028.86H1233.43V923.565Z"/>
</mask>
<path d="M1233.43 923.565H1337.72V1028.86H1233.43V923.565Z" fill="black"/>
<path d="M1233.43 923.565V921.565H1231.43V923.565H1233.43ZM1337.72 923.565H1339.72V921.565H1337.72V923.565ZM1233.43 925.565H1337.72V921.565H1233.43V925.565ZM1335.72 923.565V1028.86H1339.72V923.565H1335.72ZM1235.43 1028.86V923.565H1231.43V1028.86H1235.43Z" fill="#262626" mask="url(#path-151-inside-13_300_9)"/>
<mask id="path-153-inside-14_300_9" fill="white">
<path d="M1335.71 923.565H1440V1028.86H1335.71V923.565Z"/>
</mask>
<path d="M1335.71 923.565H1440V1028.86H1335.71V923.565Z" fill="black"/>
<path d="M1335.71 923.565V921.565H1333.71V923.565H1335.71ZM1440 923.565H1442V921.565H1440V923.565ZM1335.71 925.565H1440V921.565H1335.71V925.565ZM1438 923.565V1028.86H1442V923.565H1438ZM1337.71 1028.86V923.565H1333.71V1028.86H1337.71Z" fill="#262626" mask="url(#path-153-inside-14_300_9)"/>
</svg>